<svg xmlns="http://www.w3.org/2000/svg" width="2231.68" height="4145.995" viewBox="0 0 2231.68 4145.995">
  <g id="circles" transform="translate(0 0)">
    <ellipse cx="149.037" cy="149.037" rx="149.037" ry="149.037" transform="translate(213.513 976.25)" fill="#680fb0" opacity="0.15"/>
    <!-- Add more circle elements as needed -->
  </g>
    <path d="M30.354,0H263.476A30.448,30.448,0,0,1,293.83,30.54V267.533a30.448,30.448,0,0,1-30.354,30.54H30.354A30.448,30.448,0,0,1,0,267.533V30.54A30.448,30.448,0,0,1,30.354,0Z" transform="translate(49.292 1127.729)" fill="#003265" opacity="0.15"/>
    <path d="M38.109,0H330.782a38.226,38.226,0,0,1,38.109,38.342V335.876a38.226,38.226,0,0,1-38.109,38.342H38.109A38.226,38.226,0,0,1,0,335.876V38.342A38.226,38.226,0,0,1,38.109,0Z" transform="translate(1862.79 1416.281)" fill="#680fb0" opacity="0.15"/>
    <ellipse cx="149.037" cy="149.037" rx="149.037" ry="149.037" transform="translate(1380.228 1949.744)" fill="#003265" opacity="0.15"></ellipse>
    <ellipse cx="187.676" cy="187.676" rx="187.676" ry="187.676" transform="translate(1553.832 1976.141)" fill="#680fb0" opacity="0.15"></ellipse>
    <path d="M38.109,0H330.782a38.226,38.226,0,0,1,38.109,38.342V335.876a38.226,38.226,0,0,1-38.109,38.342H38.109A38.226,38.226,0,0,1,0,335.876V38.342A38.226,38.226,0,0,1,38.109,0Z" transform="translate(83.891 1870.231)" fill="#003265" opacity="0.15"/>
    <path d="M30.354,0H263.476A30.448,30.448,0,0,1,293.83,30.54V267.533a30.448,30.448,0,0,1-30.354,30.54H30.354A30.448,30.448,0,0,1,0,267.533V30.54A30.448,30.448,0,0,1,30.354,0Z" transform="translate(1863.061 2460.573)" fill="#680fb0" opacity="0.15"/>
    <ellipse cx="149.037" cy="149.037" rx="149.037" ry="149.037" transform="translate(1478.816 3133.863)" fill="#680fb0" opacity="0.15"></ellipse>
    <path d="M38.109,0H330.782a38.226,38.226,0,0,1,38.109,38.342V335.876a38.226,38.226,0,0,1-38.109,38.342H38.109A38.226,38.226,0,0,1,0,335.876V38.342A38.226,38.226,0,0,1,38.109,0Z" transform="translate(1597.816 2940.934)" fill="#003265" opacity="0.15"/>
    <ellipse cx="187.676" cy="187.676" rx="187.676" ry="187.676" transform="translate(2.865 2782.98)" fill="#003265" opacity="0.15"></ellipse>
    <path d="M38.109,0H330.782a38.226,38.226,0,0,1,38.109,38.342V335.876a38.226,38.226,0,0,1-38.109,38.342H38.109A38.226,38.226,0,0,1,0,335.876V38.342A38.226,38.226,0,0,1,38.109,0Z" transform="translate(74.327 3048.66)" fill="#680fb0" opacity="0.15"/>
    <ellipse cx="187.676" cy="187.676" rx="187.676" ry="187.676" transform="translate(1720.462 3643.71)" fill="#003265" opacity="0.15"></ellipse>
    <ellipse cx="149.037" cy="149.037" rx="149.037" ry="149.037" transform="translate(1839.833 3494.673)" fill="#003265" opacity="0.15"></ellipse>
    <path d="M30.354,0H263.476A30.448,30.448,0,0,1,293.83,30.54V267.533a30.448,30.448,0,0,1-30.354,30.54H30.354A30.448,30.448,0,0,1,0,267.533V30.54A30.448,30.448,0,0,1,30.354,0Z" transform="translate(14.71 3516.778)" fill="#680fb0" opacity="0.15"/>
    <path d="M38.109,0H330.782a38.226,38.226,0,0,1,38.109,38.342V335.876a38.226,38.226,0,0,1-38.109,38.342H38.109A38.226,38.226,0,0,1,0,335.876V38.342A38.226,38.226,0,0,1,38.109,0Z" transform="translate(0 3771.777)" fill="#680fb0" opacity="0.15"/>
    <ellipse cx="149.037" cy="149.037" rx="149.037" ry="149.037" transform="translate(1596.173 794.731)" fill="#680fb0" opacity="0.15"></ellipse>
    <path d="M30.325,0h232.9a30.418,30.418,0,0,1,30.325,30.511V267.275a30.418,30.418,0,0,1-30.325,30.511H30.325A30.418,30.418,0,0,1,0,267.275V30.511A30.418,30.418,0,0,1,30.325,0Z" transform="translate(1654.706 0)" fill="#003265" opacity="0.15"/>
    <path d="M38.072,0H330.463a38.189,38.189,0,0,1,38.072,38.31V335.552a38.189,38.189,0,0,1-38.072,38.31H38.072A38.189,38.189,0,0,1,0,335.552V38.31A38.189,38.189,0,0,1,38.072,0Z" transform="translate(1799.359 167.136)" fill="#003265" opacity="0.15"/>
    <circle cx="81" cy="81" r="81" transform="translate(1356.152 640.442)" fill="#680fb0" opacity="0.15"></circle>
</svg>